<svg width="80" height="80" viewBox="0 0 80 80" fill="none" xmlns="http://www.w3.org/2000/svg">
<path fill-rule="evenodd" clip-rule="evenodd" d="M40 0C62.0766 0 80 17.9234 80 40C80 62.0766 62.0766 80 40 80C17.9234 80 0 62.0766 0 40C0 17.9234 17.9234 0 40 0ZM32.9545 61.2747C50.655 61.2747 60.3333 46.6075 60.3333 33.8961C60.3333 33.477 60.3333 33.058 60.3133 32.6588C62.1891 31.3019 63.8255 29.6056 65.1225 27.67C63.4064 28.4283 61.5505 28.9472 59.5948 29.1866C61.5905 27.9892 63.107 26.1134 63.8255 23.8586C61.9695 24.9561 59.9142 25.7542 57.7191 26.1933C55.963 24.3175 53.4686 23.1602 50.6948 23.1602C45.3867 23.1602 41.0764 27.4705 41.0764 32.7786C41.0764 33.5369 41.1563 34.2752 41.3358 34.9736C33.3338 34.5745 26.2495 30.7431 21.5003 24.9161C20.682 26.333 20.2031 27.9892 20.2031 29.7453C20.2031 33.0778 21.8994 36.0312 24.4936 37.7473C22.917 37.7075 21.4403 37.2684 20.1433 36.5502V36.6698C20.1433 41.3394 23.4558 45.2106 27.8659 46.1088C27.0678 46.3281 26.2097 46.448 25.3317 46.448C24.713 46.448 24.1144 46.3881 23.5158 46.2683C24.733 50.0997 28.285 52.8736 32.4956 52.9533C29.203 55.5277 25.0523 57.0642 20.5423 57.0642C19.7641 57.0642 19.0058 57.0242 18.2475 56.9245C22.4581 59.6783 27.5267 61.2747 32.9545 61.2747V61.2747Z"/>
</svg>
