<svg width="80" height="80" viewBox="0 0 80 80" fill="none" xmlns="http://www.w3.org/2000/svg">
<path fill-rule="evenodd" clip-rule="evenodd" d="M80 40C80 62.0914 62.0914 80 40 80C17.9086 80 0 62.0914 0 40C0 17.9086 17.9086 0 40 0C62.0914 0 80 17.9086 80 40ZM20 51.7197V29.0693C20 27.7429 20.7561 26.6667 22.1445 26.6667H57.4942C58.831 26.6667 59.6387 27.7171 59.6387 29.0693V51.7197C59.6387 52.9403 58.7355 53.9506 57.4942 53.9506H22.1445C20.9019 53.9506 20 52.9519 20 51.7197ZM24.1174 30.1842C23.5897 30.1842 23.2594 30.4964 23.2594 31.0422C23.2594 31.5036 23.6148 31.7059 23.9459 31.8944C23.9842 31.9162 24.0223 31.9378 24.0594 31.9597C25.048 32.5411 27.8846 34.3322 30.8924 36.2313C35.1198 38.9004 39.6854 41.7831 39.9342 41.8216C40.2831 41.8746 40.7387 41.5615 41.0156 41.3712C41.0417 41.3532 41.0663 41.3363 41.089 41.3209C42.5369 40.3966 43.9892 39.4571 45.4447 38.5155C48.524 36.5236 51.6172 34.5226 54.711 32.6371C54.8047 32.5798 54.905 32.5204 55.0085 32.4591C55.7055 32.0459 56.5497 31.5455 56.5497 31.0422C56.5497 30.4964 56.2206 30.1842 55.6916 30.1842C55.4121 30.1842 46.7764 35.7494 43.311 37.9826C42.6816 38.3882 42.2227 38.6839 42.0155 38.8164C41.6824 39.0396 41.3546 39.243 41.0297 39.4447C40.7102 39.643 40.3935 39.8395 40.0774 40.0513L38.0671 38.8009C37.9131 38.7064 37.286 38.3116 36.3768 37.739C32.6935 35.4196 24.3792 30.1842 24.1174 30.1842Z"/>
</svg>
