<svg viewBox="0 0 47 56" fill="none" xmlns="http://www.w3.org/2000/svg">
    <path d="M13.4286 40.0059V27.4167C13.4286 23.7085 10.4225 20.7024 6.71428 20.7024C3.00609 20.7024 0 23.7085 0 27.4167V40.8452C0 49.1887 6.76369 55.9524 15.1071 55.9524C23.4506 55.9524 30.2143 49.1887 30.2143 40.8452V15.6667C30.2143 14.7396 30.9658 13.9881 31.8929 13.9881C32.8199 13.9881 33.5714 14.7396 33.5714 15.6667V32.1726C33.5714 35.8808 36.5775 38.8869 40.2857 38.8869C43.9939 38.8869 47 35.8808 47 32.1726V15.1071C47 6.7637 40.2363 0 31.8929 0C23.5494 0 16.7857 6.76369 16.7857 15.1071V40.0059C16.7857 40.933 16.0342 41.6845 15.1071 41.6845C14.1801 41.6845 13.4286 40.933 13.4286 40.0059Z" fill=""/>
    <path d="M13.4286 8.39289V7.83336C13.4286 4.12517 10.4225 1.11908 6.71428 1.11908C3.00609 1.11908 0 4.12516 0 7.83336V8.39289C0 12.1011 3.00609 15.1072 6.71428 15.1072C10.4225 15.1072 13.4286 12.1011 13.4286 8.39289Z" fill=""/>
    <path d="M47 49.2381V48.6785C47 44.9704 43.9939 41.9643 40.2857 41.9643C36.5775 41.9643 33.5714 44.9703 33.5714 48.6785V49.2381C33.5714 52.9463 36.5775 55.9524 40.2857 55.9524C43.9939 55.9524 47 52.9463 47 49.2381Z"/>
</svg>
